<?xml version="1.0" encoding="UTF-8" ?>
<!DOCTYPE svg PUBLIC "-//W3C//DTD SVG 1.1//EN" "http://www.w3.org/Graphics/SVG/1.1/DTD/svg11.dtd">
<svg width="512pt" height="512pt" viewBox="0 0 512 512" version="1.1" xmlns="http://www.w3.org/2000/svg">
<g id="#000000ff">
<path fill="#000000" opacity="1.00" d=" M 425.02 32.48 C 436.62 31.04 448.36 31.60 460.03 31.61 C 463.75 31.47 467.37 32.46 471.08 32.59 C 475.88 32.75 479.70 37.42 479.80 42.06 C 481.33 54.95 480.59 68.00 480.54 80.96 C 480.66 83.99 479.86 86.93 479.63 89.93 C 479.48 98.42 477.22 106.68 476.27 115.09 L 475.75 115.90 C 474.39 125.08 470.90 133.76 469.18 142.84 C 469.01 142.27 468.84 141.70 468.68 141.13 C 468.42 146.08 465.60 150.38 464.26 155.06 C 456.53 173.95 447.62 192.44 436.39 209.51 C 417.85 238.50 395.41 264.80 371.23 289.20 C 366.19 294.46 360.67 299.23 355.72 304.57 C 355.83 312.15 354.38 319.61 354.37 327.18 C 353.33 333.42 353.74 339.77 352.68 346.01 C 352.82 352.71 351.43 359.29 351.47 365.98 C 351.36 369.29 350.16 372.55 348.03 375.10 C 322.17 408.89 296.35 442.71 270.49 476.49 C 268.13 479.94 263.90 480.97 259.94 480.42 C 256.34 478.94 253.34 475.97 252.86 471.95 C 249.94 439.82 246.92 407.68 244.21 375.52 C 243.23 373.14 240.98 371.61 239.28 369.77 C 231.29 361.71 223.14 353.81 215.28 345.63 C 214.91 345.56 214.18 345.43 213.81 345.36 C 211.03 358.54 202.78 370.08 193.03 379.12 C 182.54 388.92 168.61 393.22 155.82 399.07 C 139.91 405.61 123.84 411.75 107.98 418.41 C 104.36 420.02 99.56 420.34 96.50 417.41 C 93.55 414.70 91.60 410.13 93.46 406.27 C 101.30 386.35 109.42 366.54 117.66 346.78 C 120.02 341.45 121.86 335.87 124.91 330.88 C 129.60 322.66 136.40 315.90 143.53 309.79 C 150.58 305.32 157.83 300.31 166.26 299.05 C 166.38 298.65 166.61 297.84 166.73 297.43 C 156.65 287.68 146.90 277.59 137.10 267.55 C 109.39 265.03 81.69 262.48 53.98 260.08 C 48.35 259.16 42.55 259.61 37.01 258.08 C 33.22 256.35 30.52 252.31 31.30 248.06 C 30.87 243.72 34.75 241.12 37.79 238.85 C 69.41 214.78 100.99 190.66 132.59 166.56 C 135.06 164.75 137.33 162.62 140.11 161.28 C 146.47 158.96 153.38 160.06 159.94 158.90 C 163.52 158.34 167.17 158.71 170.76 158.24 C 176.44 157.20 182.27 157.80 187.95 156.69 C 195.03 156.72 202.00 155.32 209.09 155.38 C 237.37 125.96 267.90 98.31 302.48 76.44 C 328.34 59.61 356.72 46.35 386.71 38.89 C 399.34 36.03 412.07 33.26 425.02 32.48 M 293.83 159.85 C 280.67 172.41 277.95 194.04 287.28 209.58 C 293.69 220.66 305.15 228.84 317.95 230.41 C 322.93 230.64 328.03 230.93 332.93 229.76 C 344.07 227.08 353.82 219.68 359.65 209.83 C 363.76 203.69 364.84 196.15 365.40 188.95 C 365.13 184.30 364.24 179.70 363.25 175.16 L 362.83 175.75 C 361.65 168.97 356.81 163.61 352.22 158.78 C 346.63 152.78 338.78 149.66 330.97 147.76 C 317.64 145.75 303.01 149.61 293.83 159.85 Z" />
</g>
</svg>
